<svg width="12" height="12" viewBox="0 0 12 12" fill="none" xmlns="http://www.w3.org/2000/svg">
<g clip-path="url(#clip0_4161_1944)">
<path d="M11.9995 6.75001C11.9995 6.91417 11.9672 7.07671 11.9044 7.22837C11.8415 7.38003 11.7495 7.51783 11.6334 7.6339C11.5173 7.74997 11.3795 7.84205 11.2279 7.90486C11.0762 7.96768 10.9137 8.00001 10.7495 8.00001H8.73151L6.61851 11.2435C6.48847 11.4742 6.29917 11.666 6.07017 11.799C5.84118 11.932 5.58082 12.0014 5.31601 12C5.10354 12.0001 4.89422 11.9486 4.70599 11.8501C4.51775 11.7515 4.35621 11.6088 4.23519 11.4342C4.11418 11.2596 4.0373 11.0582 4.01115 10.8473C3.98499 10.6365 4.01034 10.4224 4.08501 10.2235L5.00901 8.00001H2.99951C2.64695 8.00004 2.30064 7.90687 1.99569 7.72993C1.69074 7.553 1.43797 7.2986 1.26301 6.99251L0.0995126 5.08001C0.0497978 4.99746 0.0171252 4.90578 0.00342354 4.81039C-0.0102781 4.715 -0.00473131 4.61783 0.0197366 4.52462C0.0442046 4.43141 0.0870978 4.34404 0.145884 4.26768C0.204671 4.19132 0.27816 4.12751 0.362013 4.08001C0.495078 4.01025 0.646931 3.98475 0.795485 4.00723C0.94404 4.02971 1.08155 4.099 1.18801 4.20501L1.89651 4.91401C2.2715 5.28911 2.78012 5.4999 3.31051 5.50001H10.7495C10.9137 5.50001 11.0762 5.53235 11.2279 5.59516C11.3795 5.65798 11.5173 5.75006 11.6334 5.86613C11.7495 5.9822 11.8415 6.12 11.9044 6.27166C11.9672 6.42332 11.9995 6.58586 11.9995 6.75001ZM8.86501 4.50001L6.61501 0.756514C6.48513 0.526019 6.29607 0.334378 6.06736 0.201387C5.83865 0.0683963 5.57858 -0.00112188 5.31401 1.36921e-05C5.10158 7.15363e-05 4.89233 0.0515922 4.70416 0.150167C4.51599 0.248743 4.3545 0.391438 4.23351 0.566044C4.11251 0.74065 4.03563 0.941968 4.00942 1.15277C3.98321 1.36358 4.00846 1.5776 4.08301 1.77651L5.14201 4.50001H8.86501Z" fill="#637381"/>
</g>
<defs>
<clipPath id="clip0_4161_1944">
<rect width="12" height="12" fill="white"/>
</clipPath>
</defs>
</svg>
