<svg width="14" height="14" viewBox="0 0 14 14" fill="none" xmlns="http://www.w3.org/2000/svg">
<g clip-path="url(#clip0_4161_2203)">
<path d="M0 11.0859C0.00092625 11.8592 0.308514 12.6005 0.855295 13.1473C1.40208 13.6941 2.1434 14.0017 2.91667 14.0026H11.0833C11.8566 14.0017 12.5979 13.6941 13.1447 13.1473C13.6915 12.6005 13.9991 11.8592 14 11.0859V5.83594H0V11.0859ZM9.91667 8.46094C10.0897 8.46094 10.2589 8.51226 10.4028 8.6084C10.5467 8.70455 10.6588 8.8412 10.7251 9.00109C10.7913 9.16098 10.8086 9.33691 10.7749 9.50664C10.7411 9.67638 10.6578 9.83229 10.5354 9.95466C10.413 10.077 10.2571 10.1604 10.0874 10.1941C9.91764 10.2279 9.7417 10.2106 9.58182 10.1443C9.42193 10.0781 9.28528 9.96595 9.18913 9.82206C9.09298 9.67817 9.04167 9.509 9.04167 9.33594C9.04167 9.10387 9.13385 8.88131 9.29795 8.71722C9.46204 8.55313 9.6846 8.46094 9.91667 8.46094ZM7 8.46094C7.17306 8.46094 7.34223 8.51226 7.48612 8.6084C7.63002 8.70455 7.74217 8.8412 7.80839 9.00109C7.87462 9.16098 7.89195 9.33691 7.85819 9.50664C7.82442 9.67638 7.74109 9.83229 7.61872 9.95466C7.49635 10.077 7.34044 10.1604 7.1707 10.1941C7.00097 10.2279 6.82504 10.2106 6.66515 10.1443C6.50527 10.0781 6.36861 9.96595 6.27246 9.82206C6.17632 9.67817 6.125 9.509 6.125 9.33594C6.125 9.10387 6.21719 8.88131 6.38128 8.71722C6.54538 8.55313 6.76794 8.46094 7 8.46094ZM4.08333 8.46094C4.25639 8.46094 4.42556 8.51226 4.56946 8.6084C4.71335 8.70455 4.8255 8.8412 4.89173 9.00109C4.95795 9.16098 4.97528 9.33691 4.94152 9.50664C4.90776 9.67638 4.82442 9.83229 4.70205 9.95466C4.57968 10.077 4.42377 10.1604 4.25404 10.1941C4.0843 10.2279 3.90837 10.2106 3.74849 10.1443C3.5886 10.0781 3.45194 9.96595 3.3558 9.82206C3.25965 9.67817 3.20833 9.509 3.20833 9.33594C3.20833 9.10387 3.30052 8.88131 3.46461 8.71722C3.62871 8.55313 3.85127 8.46094 4.08333 8.46094Z" fill="#637381"/>
<path d="M11.0833 1.16667H10.5V0.583333C10.5 0.428624 10.4385 0.280251 10.3291 0.170854C10.2197 0.0614582 10.0714 0 9.91667 0C9.76196 0 9.61358 0.0614582 9.50419 0.170854C9.39479 0.280251 9.33333 0.428624 9.33333 0.583333V1.16667H4.66667V0.583333C4.66667 0.428624 4.60521 0.280251 4.49581 0.170854C4.38642 0.0614582 4.23804 0 4.08333 0C3.92862 0 3.78025 0.0614582 3.67085 0.170854C3.56146 0.280251 3.5 0.428624 3.5 0.583333V1.16667H2.91667C2.1434 1.16759 1.40208 1.47518 0.855295 2.02196C0.308514 2.56874 0.00092625 3.31007 0 4.08333L0 4.66667H14V4.08333C13.9991 3.31007 13.6915 2.56874 13.1447 2.02196C12.5979 1.47518 11.8566 1.16759 11.0833 1.16667Z" fill="#637381"/>
</g>
<defs>
<clipPath id="clip0_4161_2203">
<rect width="14" height="14" fill="white"/>
</clipPath>
</defs>
</svg>
