<svg width="10" height="12" viewBox="0 0 10 12" fill="none" xmlns="http://www.w3.org/2000/svg">
<path d="M6.49999 3.99655H9.76999C9.59543 3.53399 9.32424 3.11399 8.9745 2.76456L7.23251 1.02156C6.88266 0.672227 6.46254 0.401219 6 0.226562V3.49656C6 3.77268 6.22385 3.99655 6.49999 3.99655Z" fill="#637381"/>
<path d="M9.98798 4.99999H6.49999C5.67157 4.99999 4.99999 4.32841 4.99999 3.49999V0.012C4.91948 0.00649219 4.839 0 4.75748 0H2.49998C1.11996 0.00166406 0.00164063 1.11998 0 2.50001V9.50002C0.00164063 10.88 1.11996 11.9984 2.49998 12H7.49998C8.88 11.9984 9.99832 10.88 9.99998 9.49999V5.2425C9.99998 5.16101 9.99349 5.0805 9.98798 4.99999Z" fill="#637381"/>
</svg>
