<svg width="12" height="10" viewBox="0 0 12 10" fill="none" xmlns="http://www.w3.org/2000/svg">
<path d="M4.5 3.75C4.5 3.99723 4.42669 4.2389 4.28934 4.44446C4.15199 4.65002 3.95676 4.81024 3.72835 4.90485C3.49995 4.99946 3.24861 5.02421 3.00614 4.97598C2.76366 4.92775 2.54093 4.8087 2.36612 4.63388C2.1913 4.45907 2.07225 4.23634 2.02402 3.99386C1.97579 3.75139 2.00054 3.50005 2.09515 3.27165C2.18976 3.04324 2.34998 2.84801 2.55554 2.71066C2.7611 2.57331 3.00277 2.5 3.25 2.5C3.58152 2.5 3.89946 2.6317 4.13388 2.86612C4.3683 3.10054 4.5 3.41848 4.5 3.75ZM12 5V4C12 3.46957 11.7893 2.96086 11.4142 2.58579C11.0391 2.21071 10.5304 2 10 2H7.5C6.96957 2 6.46086 2.21071 6.08579 2.58579C5.71071 2.96086 5.5 3.46957 5.5 4V5H12ZM1 6V0.5C1 0.367392 0.947322 0.240215 0.853553 0.146447C0.759785 0.0526784 0.632608 0 0.5 0C0.367392 0 0.240215 0.0526784 0.146447 0.146447C0.0526784 0.240215 0 0.367392 0 0.5L0 9.5C0 9.63261 0.0526784 9.75979 0.146447 9.85355C0.240215 9.94732 0.367392 10 0.5 10C0.632608 10 0.759785 9.94732 0.853553 9.85355C0.947322 9.75979 1 9.63261 1 9.5V8.5H11V9.5C11 9.63261 11.0527 9.75979 11.1464 9.85355C11.2402 9.94732 11.3674 10 11.5 10C11.6326 10 11.7598 9.94732 11.8536 9.85355C11.9473 9.75979 12 9.63261 12 9.5V6H1Z" fill="#637381"/>
</svg>
