<svg width="14" height="14" viewBox="0 0 14 14" fill="none" xmlns="http://www.w3.org/2000/svg">
<path d="M10.2092 0.84375C9.55234 0.853967 8.90981 1.03733 8.34648 1.37532C7.78316 1.71332 7.319 2.19397 7.00087 2.76875C6.68274 2.19397 6.21858 1.71332 5.65526 1.37532C5.09194 1.03733 4.4494 0.853967 3.79254 0.84375C2.74542 0.889245 1.75887 1.34731 1.04841 2.11789C0.337956 2.88846 -0.0386503 3.90889 0.000870852 4.95625C0.000870852 7.60867 2.7927 10.5055 5.1342 12.4696C5.657 12.9089 6.31799 13.1498 7.00087 13.1498C7.68375 13.1498 8.34474 12.9089 8.86754 12.4696C11.209 10.5055 14.0009 7.60867 14.0009 4.95625C14.0404 3.90889 13.6638 2.88846 12.9533 2.11789C12.2429 1.34731 11.2563 0.889245 10.2092 0.84375Z" fill="#C4CDD5"/>
</svg>
