<svg width="14" height="15" viewBox="0 0 14 15" fill="none" xmlns="http://www.w3.org/2000/svg">
<path d="M5.33874 3.65206C6.07782 2.32673 6.44707 1.66406 6.99949 1.66406C7.5519 1.66406 7.92115 2.32673 8.66024 3.65206L8.85157 3.99506C9.06157 4.3719 9.16657 4.56031 9.3299 4.68456C9.49324 4.80881 9.6974 4.8549 10.1057 4.94706L10.4767 5.03106C11.9117 5.35598 12.6287 5.51815 12.7996 6.06706C12.9699 6.6154 12.4811 7.18765 11.5028 8.33156L11.2497 8.62731C10.972 8.95223 10.8326 9.11498 10.7702 9.31565C10.7077 9.5169 10.7287 9.7339 10.7707 10.1673L10.8092 10.5622C10.9568 12.0888 11.0309 12.8518 10.5841 13.1907C10.1372 13.5302 9.46524 13.2205 8.1224 12.6021L7.77415 12.4423C7.39265 12.2661 7.2019 12.1786 6.99949 12.1786C6.79707 12.1786 6.60632 12.2661 6.22482 12.4423L5.87715 12.6021C4.53374 13.2205 3.86174 13.5296 3.41549 13.1913C2.96807 12.8518 3.04215 12.0888 3.18974 10.5622L3.22824 10.1679C3.27024 9.7339 3.29124 9.5169 3.22824 9.31623C3.1664 9.11498 3.02699 8.95223 2.74932 8.6279L2.49615 8.33156C1.5179 7.18823 1.02907 6.61598 1.1994 6.06706C1.37032 5.51815 2.08782 5.3554 3.52282 5.03106L3.89382 4.94706C4.30157 4.8549 4.50515 4.80881 4.66907 4.68456C4.8324 4.56031 4.9374 4.3719 5.1474 3.99506L5.33874 3.65206Z" fill="#637381"/>
</svg>
